# xmcd CD database file
#
# Track frame offsets:
#	150
#	14462
#	28097
#	43252
#	58582
#	74812
#	90432
#	105620
#	122120
#	137627
#	155565
#
# Disc length: 2264 seconds
#
# Revision: 2
# Processed by: cddbd v1.5.2PL0 Copyright (c) Steve Scherf et al.
# Submitted via: CDex 1.51
#
DISCID=9b08d60b
DTITLE=Mike Reid - Turning For Home
DYEAR=1991
DGENRE=Country
TTITLE0=Walk On Faith
TTITLE1=Till You Were Gone
TTITLE2=I'll Stop Loving You
TTITLE3=I Got A Life
TTITLE4=Turning For Home
TTITLE5=As Simple As That
TTITLE6=Everything To Me
TTITLE7=Constant Companion
TTITLE8=This Road
TTITLE9=Even A Strong Man
TTITLE10=Your Love Stays With Me
EXTD=YEAR: 1991
EXTT0=
EXTT1=
EXTT2=
EXTT3=
EXTT4=
EXTT5=
EXTT6=
EXTT7=
EXTT8=
EXTT9=
EXTT10=
PLAYORDER=
